HIERARCHY
ROOT joint_Root
{
	OFFSET 0.0 0.0 0.0
	CHANNELS 6 Xposition Yposition Zposition Zrotation Xrotation Yrotation 
	JOINT Hips
	{
		OFFSET -0.726466 93.3139 -2.00062
		CHANNELS 6 Xposition Yposition Zposition Zrotation Xrotation Yrotation 
		JOINT Spine
		{
			OFFSET 15.7357 0.0 0.0
			CHANNELS 6 Xposition Yposition Zposition Zrotation Xrotation Yrotation 
			JOINT Chest
			{
				OFFSET 8.98455 -0.406207 0.0
				CHANNELS 6 Xposition Yposition Zposition Zrotation Xrotation Yrotation 
				JOINT Neck
				{
					OFFSET 16.3773 0.0 0.0
					CHANNELS 6 Xposition Yposition Zposition Zrotation Xrotation Yrotation 
					JOINT Head
					{
						OFFSET 6.45672 0.0 0.0
						CHANNELS 6 Xposition Yposition Zposition Zrotation Xrotation Yrotation 
						End Site
						{
							OFFSET 0.0 0.0 0.0
						}
					}
				}
				JOINT Shoulder_L
				{
					OFFSET 12.9942 -0.242716 4.98039
					CHANNELS 6 Xposition Yposition Zposition Zrotation Xrotation Yrotation 
					JOINT UpperArm_L
					{
						OFFSET 5.34809 0.0 0.0
						CHANNELS 6 Xposition Yposition Zposition Zrotation Xrotation Yrotation 
						JOINT LowerArm_L
						{
							OFFSET 24.3286 1.87007e-05 0.0
							CHANNELS 6 Xposition Yposition Zposition Zrotation Xrotation Yrotation 
							JOINT Hand_L
							{
								OFFSET 22.2916 0.0 0.0
								CHANNELS 6 Xposition Yposition Zposition Zrotation Xrotation Yrotation 
								End Site
								{
									OFFSET 0.0 0.0 0.0
								}
							}
						}
					}
				}
				JOINT Shoulder_R
				{
					OFFSET 12.9945 -0.242716 -4.98039
					CHANNELS 6 Xposition Yposition Zposition Zrotation Xrotation Yrotation 
					JOINT UpperArm_R
					{
						OFFSET -5.34813 0.0 0.0
						CHANNELS 6 Xposition Yposition Zposition Zrotation Xrotation Yrotation 
						JOINT LowerArm_R
						{
							OFFSET -24.3289 0.000322201 0.0
							CHANNELS 6 Xposition Yposition Zposition Zrotation Xrotation Yrotation 
							JOINT Hand_R
							{
								OFFSET -22.2915 -0.000108084 0.0
								CHANNELS 6 Xposition Yposition Zposition Zrotation Xrotation Yrotation 
								End Site
								{
									OFFSET 0.0 0.0 0.0
								}
							}
						}
					}
				}
			}
		}
		JOINT UpperLeg_L
		{
			OFFSET -2.19248 -6.46944 0.0
			CHANNELS 6 Xposition Yposition Zposition Zrotation Xrotation Yrotation 
			JOINT LowerLeg_L
			{
				OFFSET 39.0811 0.0 -1.23785e-05
				CHANNELS 6 Xposition Yposition Zposition Zrotation Xrotation Yrotation 
				JOINT Foot_L
				{
					OFFSET 40.9854 0.0 -1.26872e-05
					CHANNELS 6 Xposition Yposition Zposition Zrotation Xrotation Yrotation 
					JOINT Toes_L
					{
						OFFSET 11.7543 0.0 0.0
						CHANNELS 6 Xposition Yposition Zposition Zrotation Xrotation Yrotation 
						End Site
						{
							OFFSET 0.0 0.0 0.0
						}
					}
				}
			}
		}
		JOINT UpperLeg_R
		{
			OFFSET -2.19251 6.46944 0.0
			CHANNELS 6 Xposition Yposition Zposition Zrotation Xrotation Yrotation 
			JOINT LowerLeg_R
			{
				OFFSET -39.0811 -0.00228153 -0.0401928
				CHANNELS 6 Xposition Yposition Zposition Zrotation Xrotation Yrotation 
				JOINT Foot_R
				{
					OFFSET -40.9854 0.0 0.0
					CHANNELS 6 Xposition Yposition Zposition Zrotation Xrotation Yrotation 
					JOINT Toes_R
					{
						OFFSET -11.7543 0.0 0.0
						CHANNELS 6 Xposition Yposition Zposition Zrotation Xrotation Yrotation 
						End Site
						{
							OFFSET 0.0 0.0 0.0
						}
					}
				}
			}
		}
	}
}
MOTION
Frames:	8
Frame Time:	0.0333333
0.000000 0.000000 0.000000 0.000000 0.000000 -0.000000 -1.005490 92.366800 -1.799170 87.959300 -0.550203 4.136720 15.735700 0.000005 -0.000001 84.975600 85.098800 -84.487000 8.984550 -0.406207 -0.000000 2.002970 -0.882506 0.991831 16.377300 -0.000001 -0.000001 2.881990 -2.869100 1.153300 6.456720 -0.000001 -0.000000 3.686110 -3.308970 0.128270 12.994200 -0.242716 4.980390 -89.990800 -0.029760 -72.730200 5.348090 -0.000007 -0.000001 -66.452400 42.958800 -16.149000 24.328600 0.000019 0.000005 1.105640 2.593910 -23.094600 22.291600 -0.000001 0.000005 4.346810 5.512090 -7.028440 12.994500 -0.242716 -4.980390 87.989600 6.906730 -73.727200 -5.348130 -0.000001 -0.000004 -64.733300 37.280600 -17.635800 -24.328900 0.000322 -0.000009 2.812030 8.590120 -18.209900 -22.291500 -0.000108 -0.000004 5.638080 5.384140 -2.428700 -2.192480 -6.469440 -0.000000 -175.469000 -4.665630 -2.872280 39.081100 -0.000007 -0.000012 -0.092289 0.220425 22.718600 40.985400 -0.000006 -0.000013 -0.317901 3.459850 -65.987500 11.754300 -0.000000 0.000003 -0.000049 -0.000556 -16.599200 -2.192510 6.469440 -0.000001 -179.728000 13.657200 -179.643000 -39.081100 -0.002282 -0.040193 -0.005432 0.025544 18.919400 -40.985400 0.000008 0.000006 4.240390 6.121450 -65.743900 -11.754300 -0.000006 -0.000006 -0.005965 -0.070520 -19.443100
0.000000 0.000000 0.000000 0.000000 0.000000 -0.000000 -1.002090 92.362200 -1.798520 87.982400 -0.500799 4.148060 15.735700 0.000005 -0.000001 84.773700 85.134600 -84.406200 8.984550 -0.406207 -0.000000 1.927480 -0.904523 0.749694 16.377300 -0.000001 -0.000001 2.865480 -2.981380 1.038480 6.456720 -0.000001 -0.000000 3.971170 -3.488810 0.683907 12.994200 -0.242716 4.980390 -89.939600 -0.193471 -72.669800 5.348090 -0.000007 -0.000001 -66.561500 42.796100 -16.204500 24.328600 0.000019 0.000005 1.071770 2.522750 -23.025900 22.291600 -0.000001 0.000005 4.317460 5.510430 -6.959430 12.994500 -0.242716 -4.980390 87.908100 7.180940 -73.711200 -5.348130 -0.000001 -0.000004 -64.894000 34.480800 -17.187700 -24.328900 0.000322 -0.000009 2.968540 7.783150 -20.960600 -22.291500 -0.000108 -0.000004 4.081310 5.378850 -2.262040 -2.192480 -6.469440 -0.000000 -175.501000 -4.668970 -2.875400 39.081100 -0.000007 -0.000012 -0.090074 0.214928 22.738000 40.985400 -0.000006 -0.000013 -0.292725 3.518530 -65.996700 11.754300 -0.000000 0.000003 -0.000050 -0.000563 -16.599400 -2.192510 6.469440 -0.000001 -179.756000 13.595400 -179.640000 -39.081100 -0.002282 -0.040193 -0.006770 0.029378 18.961000 -40.985400 0.000008 0.000006 4.203340 6.023150 -65.770300 -11.754300 -0.000006 -0.000006 -0.006355 -0.074028 -19.586200
0.000000 0.000000 0.000000 0.000000 0.000000 -0.000000 -0.989533 92.368900 -1.824800 87.962300 -0.486881 4.082040 15.735700 0.000005 -0.000001 84.233800 85.206700 -83.981900 8.984550 -0.406207 -0.000000 1.774560 -0.975766 0.518394 16.377300 -0.000001 -0.000001 2.856740 -3.076710 0.850798 6.456720 -0.000001 -0.000000 4.312380 -3.705320 1.253410 12.994200 -0.242716 4.980390 -89.897300 -0.327756 -72.592500 5.348090 -0.000007 -0.000001 -66.859900 42.409800 -16.017700 24.328600 0.000019 0.000005 1.130850 2.666890 -22.987800 22.291600 -0.000001 0.000005 4.330180 5.509250 -6.910740 12.994500 -0.242716 -4.980390 87.805200 7.436180 -73.504400 -5.348130 -0.000001 -0.000004 -64.613500 30.507900 -17.336000 -24.328900 0.000322 -0.000009 2.872160 6.005820 -25.628600 -22.291500 -0.000108 -0.000004 3.634450 5.378380 -2.247570 -2.192480 -6.469440 -0.000000 -175.472000 -4.784930 -2.952010 39.081100 -0.000007 -0.000012 -0.091183 0.217734 22.723100 40.985400 -0.000006 -0.000013 -0.262406 3.652770 -65.970700 11.754300 -0.000000 0.000003 -0.000045 -0.000513 -16.597500 -2.192510 6.469440 -0.000001 -179.719000 13.611900 -179.712000 -39.081100 -0.002282 -0.040193 -0.007297 0.031011 18.904300 -40.985400 0.000008 0.000006 4.116790 6.026110 -65.697700 -11.754300 -0.000006 -0.000006 -0.006224 -0.072856 -19.538400
0.000000 0.000000 0.000000 0.000000 0.000000 -0.000000 -0.958107 92.361500 -1.851290 87.942800 -0.689732 4.194120 15.735700 0.000005 -0.000001 83.725300 85.220400 -83.579900 8.984550 -0.406207 -0.000000 1.737470 -1.051810 0.306509 16.377300 -0.000001 -0.000001 2.982940 -3.174580 0.827052 6.456720 -0.000001 -0.000000 4.468190 -3.810280 1.418910 12.994200 -0.242716 4.980390 -89.885000 -0.364951 -72.507600 5.348090 -0.000007 -0.000001 -67.182500 41.988900 -15.688800 24.328600 0.000019 0.000005 1.117310 2.640010 -22.948300 22.291600 -0.000001 0.000005 4.168720 5.507680 -6.845530 12.994500 -0.242716 -4.980390 87.750600 7.473390 -73.195700 -5.348130 -0.000001 -0.000004 -63.360300 26.627700 -19.096500 -24.328900 0.000322 -0.000009 3.249410 5.244500 -31.852300 -22.291500 -0.000108 -0.000004 5.322650 5.381170 -2.335350 -2.192480 -6.469440 -0.000000 -175.451000 -4.916780 -2.866380 39.081100 -0.000007 -0.000012 -0.092052 0.219012 22.797400 40.985400 -0.000006 -0.000013 -0.253378 3.602940 -66.005300 11.754300 -0.000000 0.000003 -0.000054 -0.000605 -16.601000 -2.192510 6.469440 -0.000001 -179.747000 13.484500 -179.659000 -39.081100 -0.002282 -0.040193 -0.007863 0.032523 18.981500 -40.985400 0.000008 0.000006 4.121190 6.108400 -65.711300 -11.754300 -0.000006 -0.000006 -0.006223 -0.072851 -19.538200
0.000000 0.000000 0.000000 0.000000 0.000000 -0.000000 -0.911860 92.355300 -1.903750 87.880500 -1.080090 4.336620 15.735700 0.000005 -0.000001 83.502700 85.224400 -83.453200 8.984550 -0.406207 -0.000000 1.724650 -1.082770 0.115218 16.377300 -0.000001 -0.000001 3.168040 -3.176500 0.922438 6.456720 -0.000001 -0.000000 4.600790 -3.821600 1.378510 12.994200 -0.242716 4.980390 -89.886000 -0.360231 -72.438700 5.348090 -0.000007 -0.000001 -67.251100 42.001900 -15.515100 24.328600 0.000019 0.000005 1.128390 2.682840 -22.820800 22.291600 -0.000001 0.000005 4.218910 5.507300 -6.830130 12.994500 -0.242716 -4.980390 87.741100 7.377030 -72.922500 -5.348130 -0.000001 -0.000004 -61.708400 22.155400 -22.119200 -24.328900 0.000322 -0.000009 5.007960 6.067950 -39.659600 -22.291500 -0.000108 -0.000004 7.809460 5.374390 -2.123710 -2.192480 -6.469440 -0.000000 -175.414000 -5.159770 -2.756920 39.081100 -0.000007 -0.000012 -0.089464 0.211707 22.908100 40.985400 -0.000006 -0.000013 -0.241442 3.424160 -66.056400 11.754300 -0.000000 0.000003 -0.000052 -0.000583 -16.600200 -2.192510 6.469440 -0.000001 -179.744000 13.279700 -179.607000 -39.081100 -0.002282 -0.040193 -0.007932 0.032595 19.049900 -40.985400 0.000008 0.000006 4.126560 6.321490 -65.684100 -11.754300 -0.000006 -0.000006 -0.006377 -0.074221 -19.594100
0.000000 0.000000 0.000000 0.000000 0.000000 -0.000000 -0.865193 92.351000 -1.994650 87.790200 -1.537260 4.486540 15.735700 0.000005 -0.000001 83.489200 85.228100 -83.521700 8.984550 -0.406207 -0.000000 1.716150 -1.079830 -0.048699 16.377300 -0.000001 -0.000001 3.390950 -3.143950 1.036940 6.456720 -0.000001 -0.000000 4.761290 -3.786400 1.276180 12.994200 -0.242716 4.980390 -89.888500 -0.351282 -72.381600 5.348090 -0.000007 -0.000001 -67.156400 42.274500 -15.509500 24.328600 0.000019 0.000005 1.127060 2.710210 -22.589700 22.291600 -0.000001 0.000005 4.239670 5.508200 -6.867190 12.994500 -0.242716 -4.980390 87.788700 7.124910 -72.707700 -5.348130 -0.000001 -0.000004 -60.273800 16.939700 -26.019200 -24.328900 0.000322 -0.000009 7.681700 6.757990 -48.897300 -22.291500 -0.000108 -0.000004 10.507400 5.353950 -1.497490 -2.192480 -6.469440 -0.000000 -175.336000 -5.340080 -2.661010 39.081100 -0.000007 -0.000012 -0.091374 0.214916 23.033300 40.985400 -0.000006 -0.000013 -0.263292 3.169980 -66.096700 11.754300 -0.000000 0.000003 -0.000051 -0.000577 -16.600000 -2.192510 6.469440 -0.000001 -179.699000 13.038800 -179.577000 -39.081100 -0.002282 -0.040193 -0.006988 0.029755 19.112000 -40.985400 0.000008 0.000006 4.148480 6.549420 -65.622900 -11.754300 -0.000006 -0.000006 -0.006058 -0.071364 -19.477500
0.000000 0.000000 0.000000 0.000000 0.000000 -0.000000 -0.775927 92.338800 -2.030130 87.726000 -2.044510 4.658410 15.735700 0.000005 -0.000001 84.006800 85.260400 -84.112500 8.984550 -0.406207 -0.000000 1.660790 -0.983551 -0.196883 16.377300 -0.000001 -0.000001 3.624590 -3.052400 1.162150 6.456720 -0.000001 -0.000000 5.032390 -3.682050 1.089030 12.994200 -0.242716 4.980390 -89.889900 -0.345028 -72.304900 5.348090 -0.000007 -0.000001 -67.150100 42.494500 -15.406100 24.328600 0.000019 0.000005 1.174020 2.843280 -22.446600 22.291600 -0.000001 0.000005 4.252160 5.508010 -6.859320 12.994500 -0.242716 -4.980390 87.927100 6.638930 -72.616200 -5.348130 -0.000001 -0.000004 -59.363800 11.235500 -30.556200 -24.328900 0.000322 -0.000009 10.406900 6.400790 -58.742700 -22.291500 -0.000108 -0.000004 13.429500 5.345510 -1.242440 -2.192480 -6.469440 -0.000000 -175.316000 -5.576010 -2.496390 39.081100 -0.000007 -0.000012 -0.089699 0.209617 23.167100 40.985400 -0.000006 -0.000013 -0.247628 2.905520 -66.191300 11.754300 -0.000000 0.000003 -0.000046 -0.000529 -16.598100 -2.192510 6.469440 -0.000001 -179.741000 12.847700 -179.502000 -39.081100 -0.002282 -0.040193 -0.008566 0.034104 19.218700 -40.985400 0.000008 0.000006 4.133650 6.852060 -65.619200 -11.754300 -0.000006 -0.000006 -0.006147 -0.072164 -19.510200
0.000000 0.000000 0.000000 0.000000 0.000000 -0.000000 -0.676151 92.341300 -2.088560 87.672800 -2.437950 4.797010 15.735700 0.000005 -0.000001 84.355900 85.290800 -84.522900 8.984550 -0.406207 -0.000000 1.605670 -0.916807 -0.320741 16.377300 -0.000001 -0.000001 3.830900 -2.920960 1.257000 6.456720 -0.000001 -0.000000 5.268430 -3.543590 0.961996 12.994200 -0.242716 4.980390 -89.900400 -0.310079 -72.185800 5.348090 -0.000007 -0.000001 -67.300900 42.312600 -15.162700 24.328600 0.000019 0.000005 1.260970 3.048450 -22.484100 22.291600 -0.000001 0.000005 4.264780 5.506720 -6.806590 12.994500 -0.242716 -4.980390 88.092500 6.125500 -72.666500 -5.348130 -0.000001 -0.000004 -59.217900 4.903350 -36.050900 -24.328900 0.000322 -0.000009 12.467300 5.125890 -67.997300 -22.291500 -0.000108 -0.000004 16.013800 5.336660 -0.981315 -2.192480 -6.469440 -0.000000 -175.317000 -5.727540 -2.352000 39.081100 -0.000007 -0.000012 -0.089745 0.209321 23.207000 40.985400 -0.000006 -0.000013 -0.220518 2.692810 -66.214900 11.754300 -0.000000 0.000003 -0.000039 -0.000453 -16.595200 -2.192510 6.469440 -0.000001 -179.762000 12.610600 -179.432000 -39.081100 -0.002282 -0.040193 -0.005884 0.026387 19.233900 -40.985400 0.000008 0.000006 4.152240 7.035200 -65.561300 -11.754300 -0.000006 -0.000006 -0.006084 -0.071598 -19.487100
